<?xml version="1.0" encoding="UTF-8"?>
<svg width="171px" height="45px" viewBox="0 0 171 45" version="1.1" xmlns="http://www.w3.org/2000/svg" xmlns:xlink="http://www.w3.org/1999/xlink">
    <!-- Generator: Sketch 55 (78076) - https://sketchapp.com -->
    <title>logo digivet</title>
    <desc>Created with Sketch.</desc>
    <defs>
        <polygon id="path-1" points="0 0.040104 5.62245126 0.040104 5.62245126 11.295864 0 11.295864"></polygon>
        <polygon id="path-3" points="0 0.040104 5.1557937 0.040104 5.1557937 10.350864 0 10.350864"></polygon>
        <polygon id="path-5" points="0 44.85096 170.689613 44.85096 170.689613 0 0 0"></polygon>
    </defs>
    <g id="Artwork" stroke="none" stroke-width="1" fill="none" fill-rule="evenodd">
        <g id="essai-complet-1" transform="translate(-8.000000, -7.000000)">
            <g id="partie-1">
                <g id="menu">
                    <g id="logo-digivet" transform="translate(8.000000, 7.000000)">
                        <path d="M132.493351,34.78806 C130.982731,38.02446 130.029298,39.82122 128.778771,42.95322 C128.466229,43.68402 127.953588,44.06454 127.536865,44.06454 C126.911781,44.06454 124.828168,42.96834 124.671897,42.44634 C124.463176,42.02874 124.307264,41.45454 124.203084,40.72374 C122.640014,31.84974 122.848376,21.93138 124.150634,13.10922 C124.358996,11.54322 125.244531,7.26282 126.338788,6.42762 C127.276414,5.69646 129.151666,5.22702 129.255846,6.74082 C128.057769,14.88402 126.65097,30.23154 127.484775,40.77594 C134.204788,26.26398 140.381624,11.01294 149.656578,0.31734 C150.594204,-0.62226 151.941008,0.70038 150.898842,2.00538 C142.399136,13.89294 138.64001,21.5811 132.493351,34.78806" id="Fill-1" fill="#F08553"></path>
                        <path d="M141.009941,33.097392 C141.044069,33.097392 141.062031,33.106032 141.062031,33.123312 C141.062031,33.141312 141.078916,33.149592 141.114122,33.149592 C141.183096,33.115392 141.304162,33.097392 141.478754,33.097392 C142.068632,32.923872 142.650607,32.715072 143.223601,32.470992 C143.796594,32.227992 144.343363,31.931712 144.864267,31.583592 L147.10451,30.017232 C147.867903,29.426112 148.56268,28.782792 149.188124,28.086192 C149.813208,27.390312 150.350996,26.624592 150.802924,25.789392 C150.97608,25.441632 151.149594,25.006032 151.323828,24.484392 C151.496983,24.032232 151.462136,23.614632 151.219647,23.231592 C150.97608,22.848912 150.594563,22.709592 150.0733,22.813992 L149.448216,23.022792 C148.336716,23.440392 147.347,23.980392 146.479426,24.640992 C145.611134,25.302312 144.812536,26.033112 144.083271,26.833392 C143.249466,27.738432 142.598517,28.704312 142.129704,29.730312 C141.660891,30.757392 141.270393,31.827312 140.957491,32.940432 C140.957491,32.975712 140.965754,33.001632 140.983716,33.018912 C141.00096,33.036912 141.009941,33.062832 141.009941,33.097392 L141.009941,33.097392 Z M140.540769,35.498592 C140.471075,35.638272 140.436588,35.759592 140.436588,35.863992 C140.332407,36.803592 140.436588,37.690992 140.74913,38.526192 C140.818464,38.839392 140.991979,39.152232 141.270393,39.465432 C141.582935,39.813912 141.929605,40.057992 142.312199,40.196592 C142.693716,40.335912 143.162529,40.318632 143.718638,40.144392 C143.927,40.074912 144.135002,39.996792 144.343363,39.909312 C144.551725,39.822912 144.77733,39.726792 145.020897,39.622392 C145.541441,39.309192 146.053722,38.987712 146.557382,38.656512 C147.060683,38.326032 147.538117,37.969632 147.990046,37.586592 C148.545078,37.099512 149.074962,36.630072 149.578981,36.177192 C150.081563,35.725392 150.576601,35.255232 151.063017,34.767792 C151.236531,34.593912 151.410046,34.428312 151.584279,34.272072 C151.757435,34.115112 151.93059,33.967512 152.105183,33.827832 C152.486699,33.514992 152.851332,33.358392 153.19908,33.358392 C153.54575,33.358392 153.736867,33.497712 153.771714,33.775992 C153.736867,33.915312 153.710643,34.054632 153.694117,34.193592 C153.675796,34.333272 153.633046,34.489512 153.563353,34.663392 C153.493659,34.837992 153.407441,34.994592 153.30326,35.132832 C153.19908,35.272512 153.094899,35.412192 152.990718,35.550432 C151.184441,37.847232 148.979762,39.744792 146.375246,41.240592 C145.78429,41.588352 145.168187,41.892912 144.525859,42.153912 C143.882813,42.414552 143.231863,42.632712 142.572651,42.806232 C141.183096,43.223832 139.880838,43.032312 138.665876,42.232392 C138.109767,41.849712 137.658197,41.396832 137.311527,40.874832 C136.963779,40.352832 136.668481,39.778992 136.425632,39.152232 C135.905088,37.830312 135.782945,36.385992 136.061359,34.819992 C136.40767,32.314392 137.380502,29.930832 138.978418,27.668592 L139.499321,26.781192 C140.262714,25.667712 141.14825,24.675912 142.155569,23.805432 C143.162529,22.936032 144.27367,22.153392 145.48971,21.456792 C146.669825,20.865312 147.885865,20.517192 149.136033,20.412792 C150.17784,20.308392 151.167197,20.412792 152.105183,20.725992 C153.424685,21.213432 153.997319,22.170312 153.824164,23.596632 C153.615802,25.024032 153.059693,26.415432 152.156914,27.772992 C151.428008,28.816632 150.594563,29.756592 149.656578,30.591792 C148.684105,31.426632 147.685407,32.201712 146.661563,32.914512 C145.637,33.628392 144.499993,34.211592 143.249466,34.663392 C142.971412,34.802712 142.667491,34.916112 142.338065,35.002512 C142.007561,35.089632 141.704359,35.168112 141.426304,35.237232 L140.540769,35.498592 Z" id="Fill-3" fill="#F08553"></path>
                        <path d="M164.033798,17.280576 C164.658882,17.176176 165.257741,17.054856 165.831094,16.915176 C166.404088,16.776936 166.984985,16.654536 167.575941,16.550136 C168.096844,16.480296 168.599785,16.419096 169.08656,16.367256 C169.572617,16.314696 170.058674,16.375896 170.54509,16.550136 C170.718245,16.724376 170.735489,16.915176 170.597539,17.123976 C170.422947,17.368056 170.223567,17.559576 169.998321,17.698176 C169.771997,17.837856 169.520167,17.959536 169.242831,18.063576 C168.235153,18.412056 167.228552,18.734256 166.221592,19.029096 C165.213913,19.325736 164.206953,19.717056 163.200352,20.203776 C163.026119,21.248136 162.765667,22.474656 162.418997,23.884056 C162.071609,25.293456 161.723861,26.764056 161.377191,28.295136 C161.029802,29.826936 160.691035,31.357656 160.361249,32.888376 C160.030745,34.420176 159.788615,35.837856 159.631985,37.142856 C159.475714,38.447856 159.431886,39.578976 159.501938,40.535496 C159.570913,41.493096 159.831724,42.145776 160.283293,42.493176 C160.421602,42.458976 160.560989,42.440976 160.700016,42.440976 L161.116739,42.440976 C161.394075,42.406416 161.611777,42.458976 161.767688,42.597576 C161.924319,42.736896 161.967428,42.928056 161.898094,43.171416 C161.828041,43.554096 161.654886,43.867296 161.377191,44.111376 C160.890415,44.598096 160.300178,44.842176 159.606119,44.842176 C158.529466,44.911296 157.695661,44.563176 157.105783,43.798176 C156.58488,43.101576 156.272697,42.388776 156.168157,41.657616 C156.098104,41.101416 156.046373,40.561416 156.011886,40.040136 C155.97668,39.518136 155.942193,38.995776 155.907705,38.473776 C155.907705,36.838656 155.993924,35.307576 156.168157,33.880176 C156.341672,32.453496 156.558655,31.061376 156.819466,29.704536 C157.079917,28.346976 157.374497,26.963496 157.705001,25.554096 C158.034428,24.144696 158.355951,22.657536 158.668493,21.091176 C158.285899,21.230856 157.965094,21.325896 157.705001,21.378456 C157.444191,21.430296 157.209964,21.482856 157.001602,21.534696 C156.793241,21.587256 156.575899,21.639096 156.350293,21.691656 C156.12397,21.743496 155.855615,21.839976 155.543073,21.978576 C155.056298,22.153176 154.639934,22.066056 154.292905,21.717576 C153.980363,21.404376 153.962401,21.038976 154.240814,20.621376 C154.344995,20.378376 154.483304,20.221776 154.657537,20.151936 C155.525111,19.420776 156.384781,18.951336 157.235829,18.742536 C158.086518,18.533376 158.842008,18.290376 159.501938,18.011376 C159.918661,16.515576 160.213241,15.453576 160.387474,14.827536 C160.560989,14.200776 160.700016,13.731336 160.804197,13.418136 C160.908378,13.104576 161.029802,12.791376 161.168829,12.478176 C161.307138,12.164976 161.533462,11.573496 161.846004,10.703376 C161.915338,10.529856 161.984312,10.337976 162.054365,10.129536 C162.123699,9.920736 162.17543,9.729576 162.210636,9.554976 C162.383791,9.032976 162.661846,8.667576 163.044081,8.458776 C163.425957,8.249976 163.859924,8.128656 164.34634,8.093376 C164.728216,8.093376 165.083867,8.233056 165.414371,8.511336 C165.743798,8.789976 165.943178,9.137376 166.01323,9.554976 C166.082205,10.076976 166.030474,10.582056 165.856959,11.068776 C165.544417,12.182976 165.30085,13.018176 165.127695,13.574376 C164.953821,14.131656 164.806172,14.592456 164.684747,14.957856 C164.562964,15.323256 164.458783,15.662376 164.372205,15.975576 C164.285268,16.288776 164.172107,16.724376 164.033798,17.280576" id="Fill-5" fill="#F08553"></path>
                        <polygon id="Fill-7" fill="#F39A58" points="14.1848092 8.696484 29.6394731 24.183684 14.1848092 39.670884"></polygon>
                        <polygon id="Fill-9" fill="#F08553" points="14.1848092 8.696484 28.2696769 22.811004 14.1848092 36.925164"></polygon>
                        <polygon id="Fill-11" fill="#F08553" points="11.434691 28.03788 1.89245987 18.25884 11.4357687 8.69652"></polygon>
                        <polygon id="Fill-13" fill="#F39A58" points="11.434691 28.03788 2.73811954 19.12572 11.4357687 10.41084"></polygon>
                        <g id="Group-17" transform="translate(0.000000, 5.250960)">
                            <mask id="mask-2" fill="white">
                                <use xlink:href="#path-1"></use>
                            </mask>
                            <g id="Clip-16"></g>
                            <polygon id="Fill-15" fill="#F39A58" mask="url(#mask-2)" points="-7.18487395e-05 0.040104 5.62245126 6.002064 0.00172436975 11.295864"></polygon>
                        </g>
                        <g id="Group-20" transform="translate(0.000000, 5.250960)">
                            <mask id="mask-4" fill="white">
                                <use xlink:href="#path-3"></use>
                            </mask>
                            <g id="Clip-19"></g>
                            <polygon id="Fill-18" fill="#F08553" mask="url(#mask-4)" points="-7.18487395e-05 0.040104 5.1557937 5.503824 0.00172436975 10.350864"></polygon>
                        </g>
                        <mask id="mask-6" fill="white">
                            <use xlink:href="#path-5"></use>
                        </mask>
                        <g id="Clip-22"></g>
                        <polygon id="Fill-21" fill="#2D2E83" mask="url(#mask-6)" points="57.1492059 43.69896 63.9475336 43.69896 63.9475336 4.66848 57.1492059 4.66848"></polygon>
                        <path d="M105.782288,15.88752 L98.113154,15.88752 C96.0421141,11.961 92.3476519,9.99756 87.7011939,9.99756 C79.9763767,9.99756 74.3786414,15.49476 74.3786414,24.07752 C74.3786414,32.65992 79.9763767,38.21364 87.7011939,38.21364 C94.7545847,38.21364 99.1768746,33.95016 100.128511,27.387 L85.5184292,27.387 L85.5184292,22.28256 L106.957375,22.28256 L106.957375,27.27504 C105.782288,36.30636 98.169196,43.99128 87.7011939,43.99128 C76.7298914,43.99128 67.8296288,35.80128 67.8296288,24.07752 C67.8296288,12.40956 76.7298914,4.16376 87.7011939,4.16376 C95.8183053,4.16376 102.815295,8.25876 105.782288,15.88752" id="Fill-23" fill="#2D2E83" mask="url(#mask-6)"></path>
                        <polygon id="Fill-24" fill="#2D2E83" mask="url(#mask-6)" points="110.225666 43.65468 116.606912 43.65468 116.606912 4.66848 110.225666 4.66848"></polygon>
                        <path d="M30.979991,4.58424 L18.2731821,4.58424 L18.2731821,9.2358 L24.6544279,15.63084 L24.6544279,9.80136 L30.979991,9.80136 C40.1604637,9.80136 45.0864132,15.29856 45.0864132,24.21756 C45.0864132,33.08076 40.1604637,38.35368 30.979991,38.35368 L24.6544279,38.35368 L24.6544279,32.7366 L18.2731821,39.13128 L18.2731821,43.57044 L30.979991,43.57044 C43.462991,43.57044 51.6357851,36.22212 51.6357851,24.21756 C51.6357851,12.1572 43.462991,4.58424 30.979991,4.58424" id="Fill-25" fill="#2D2E83" mask="url(#mask-6)"></path>
                    </g>
                </g>
            </g>
        </g>
    </g>
</svg>