<svg id="visual" viewBox="0 0 900 600" width="900" height="600" xmlns="http://www.w3.org/2000/svg" xmlns:xlink="http://www.w3.org/1999/xlink" version="1.1"><path d="M0 420L37.5 413.7C75 407.3 150 394.7 225 392C300 389.3 375 396.7 450 412.5C525 428.3 600 452.7 675 453.3C750 454 825 431 862.5 419.5L900 408L900 601L862.5 601C825 601 750 601 675 601C600 601 525 601 450 601C375 601 300 601 225 601C150 601 75 601 37.5 601L0 601Z" fill="#69b8fa"></path><path d="M0 513L37.5 502.7C75 492.3 150 471.7 225 470.7C300 469.7 375 488.3 450 494.8C525 501.3 600 495.7 675 482.3C750 469 825 448 862.5 437.5L900 427L900 601L862.5 601C825 601 750 601 675 601C600 601 525 601 450 601C375 601 300 601 225 601C150 601 75 601 37.5 601L0 601Z" fill="#007eff"></path><path d="M0 506L37.5 509.8C75 513.7 150 521.3 225 530.2C300 539 375 549 450 552.2C525 555.3 600 551.7 675 545.5C750 539.3 825 530.7 862.5 526.3L900 522L900 601L862.5 601C825 601 750 601 675 601C600 601 525 601 450 601C375 601 300 601 225 601C150 601 75 601 37.5 601L0 601Z" fill="#001fff"></path></svg>