<svg id="visual" viewBox="0 0 300 200" width="300" height="200" xmlns="http://www.w3.org/2000/svg" xmlns:xlink="http://www.w3.org/1999/xlink" version="1.1"><path d="M0 149L7.2 149C14.3 149 28.7 149 43 144.5C57.3 140 71.7 131 86 128.8C100.3 126.7 114.7 131.3 128.8 134.2C143 137 157 138 171.2 137.3C185.3 136.7 199.7 134.3 214 133.7C228.3 133 242.7 134 257 135.8C271.3 137.7 285.7 140.3 292.8 141.7L300 143L300 201L292.8 201C285.7 201 271.3 201 257 201C242.7 201 228.3 201 214 201C199.7 201 185.3 201 171.2 201C157 201 143 201 128.8 201C114.7 201 100.3 201 86 201C71.7 201 57.3 201 43 201C28.7 201 14.3 201 7.2 201L0 201Z" fill="#a0d9ff"></path><path d="M0 166L7.2 162.5C14.3 159 28.7 152 43 149.2C57.3 146.3 71.7 147.7 86 149C100.3 150.3 114.7 151.7 128.8 151.5C143 151.3 157 149.7 171.2 152.3C185.3 155 199.7 162 214 165.5C228.3 169 242.7 169 257 165.5C271.3 162 285.7 155 292.8 151.5L300 148L300 201L292.8 201C285.7 201 271.3 201 257 201C242.7 201 228.3 201 214 201C199.7 201 185.3 201 171.2 201C157 201 143 201 128.8 201C114.7 201 100.3 201 86 201C71.7 201 57.3 201 43 201C28.7 201 14.3 201 7.2 201L0 201Z" fill="#59b7ff"></path><path d="M0 168L7.2 166.5C14.3 165 28.7 162 43 161.3C57.3 160.7 71.7 162.3 86 163.7C100.3 165 114.7 166 128.8 166.3C143 166.7 157 166.3 171.2 166.7C185.3 167 199.7 168 214 166.8C228.3 165.7 242.7 162.3 257 161.8C271.3 161.3 285.7 163.7 292.8 164.8L300 166L300 201L292.8 201C285.7 201 271.3 201 257 201C242.7 201 228.3 201 214 201C199.7 201 185.3 201 171.2 201C157 201 143 201 128.8 201C114.7 201 100.3 201 86 201C71.7 201 57.3 201 43 201C28.7 201 14.3 201 7.2 201L0 201Z" fill="#0092ff"></path><path d="M0 181L7.2 179.7C14.3 178.3 28.7 175.7 43 176.8C57.3 178 71.7 183 86 182.3C100.3 181.7 114.7 175.3 128.8 172.5C143 169.7 157 170.3 171.2 172C185.3 173.7 199.7 176.3 214 178.2C228.3 180 242.7 181 257 181C271.3 181 285.7 180 292.8 179.5L300 179L300 201L292.8 201C285.7 201 271.3 201 257 201C242.7 201 228.3 201 214 201C199.7 201 185.3 201 171.2 201C157 201 143 201 128.8 201C114.7 201 100.3 201 86 201C71.7 201 57.3 201 43 201C28.7 201 14.3 201 7.2 201L0 201Z" fill="#3062ff"></path></svg>