<svg id="visual" viewBox="0 0 900 600" width="900" height="600" xmlns="http://www.w3.org/2000/svg" xmlns:xlink="http://www.w3.org/1999/xlink" version="1.1"><path d="M0 153L21.5 141C43 129 86 105 128.8 93.7C171.7 82.3 214.3 83.7 257.2 89C300 94.3 343 103.7 385.8 116.7C428.7 129.7 471.3 146.3 514.2 153.2C557 160 600 157 642.8 142.5C685.7 128 728.3 102 771.2 102.3C814 102.7 857 129.3 878.5 142.7L900 156L900 0L878.5 0C857 0 814 0 771.2 0C728.3 0 685.7 0 642.8 0C600 0 557 0 514.2 0C471.3 0 428.7 0 385.8 0C343 0 300 0 257.2 0C214.3 0 171.7 0 128.8 0C86 0 43 0 21.5 0L0 0Z" fill="#ffffff" stroke-linecap="round" stroke-linejoin="miter"></path></svg>