<svg id="visual" viewBox="0 0 900 600" width="900" height="600" xmlns="http://www.w3.org/2000/svg" xmlns:xlink="http://www.w3.org/1999/xlink" version="1.1"><path d="M0 449L21.5 451.2C43 453.3 86 457.7 128.8 464.5C171.7 471.3 214.3 480.7 257.2 485.3C300 490 343 490 385.8 481.7C428.7 473.3 471.3 456.7 514.2 443C557 429.3 600 418.7 642.8 417.8C685.7 417 728.3 426 771.2 421C814 416 857 397 878.5 387.5L900 378L900 601L878.5 601C857 601 814 601 771.2 601C728.3 601 685.7 601 642.8 601C600 601 557 601 514.2 601C471.3 601 428.7 601 385.8 601C343 601 300 601 257.2 601C214.3 601 171.7 601 128.8 601C86 601 43 601 21.5 601L0 601Z" fill="#ffffff" stroke-linecap="round" stroke-linejoin="miter"></path></svg>